<?xml version="1.0" encoding="utf-8"?>
<!-- Generator: Adobe Illustrator 16.0.3, SVG Export Plug-In . SVG Version: 6.00 Build 0)  -->
<!DOCTYPE svg PUBLIC "-//W3C//DTD SVG 1.1//EN" "http://www.w3.org/Graphics/SVG/1.1/DTD/svg11.dtd">
<svg version="1.1" id="svg" xmlns="http://www.w3.org/2000/svg" xmlns:xlink="http://www.w3.org/1999/xlink" x="0px" y="0px"
	 width="400px" height="178.111px" viewBox="0 0 400 178.111" enable-background="new 0 0 400 178.111" xml:space="preserve">
<g id="svgg">
	<path id="path4" fill="#0464D4" d="M41,6.932c-7.172,0.845-13.617,5.597-16.905,12.465c-1.223,2.557-2.112,5.356-2.373,7.479
		c-0.111,0.898-0.073,0.886-1.448,0.518c-1.531-0.41-6.579-0.406-8.274,0.006c-2.255,0.549-5.5,1.898-5.5,2.288
		c0,0.081-0.086,0.146-0.191,0.146c-0.434,0-2.517,1.906-3.445,3.151c-0.245,0.329-0.489,0.637-0.542,0.683
		c-0.054,0.045-0.406,0.656-0.784,1.356c-2.995,5.561-1.537,13.623,2.956,16.352c0.324,0.195,0.627,0.408,0.673,0.469
		c0.123,0.166,1.701,0.943,2.529,1.246c2.033,0.744,5.145,1.076,7.408,0.791l1.187-0.149l0.095,1.01
		c0.275,2.911,2.742,4.43,5.996,3.689c0.569-0.129,1.56-0.321,2.201-0.427c1.345-0.221,3.356-0.598,4.917-0.92
		c0.596-0.123,1.646-0.312,2.333-0.419c0.688-0.108,1.813-0.308,2.5-0.442c0.688-0.136,1.625-0.312,2.084-0.391
		c0.458-0.08,1.433-0.258,2.166-0.396c0.734-0.138,1.934-0.362,2.667-0.501c2.93-0.55,3.355-0.652,3.917-0.942
		c1.747-0.906,2.394-2.54,2.303-5.825l-0.053-1.917l-1.084-0.104c-0.973-0.094-1.778-0.277-3.458-0.791
		c-2.632-0.803-5.418-2.945-5.034-3.873c0.241-0.581-0.249-0.528,4.576-0.491c8.012,0.061,12.976-2.036,16.504-6.973
		c4.815-6.736,3.28-18.213-3.087-23.068c-0.504-0.386-1.049-0.819-1.212-0.966c-0.884-0.793-4.066-2.151-6.455-2.756
		C47.269,7.001,42.193,6.791,41,6.932 M380.333,39.932c-0.504,0.13-1.216,0.323-1.583,0.43c-0.923,0.27-3.75,1.645-3.75,1.824
		c0,0.081-0.086,0.147-0.191,0.147c-0.976,0-4.356,3.876-5.525,6.334c-1.985,4.174-2.2,10.216-0.479,13.438
		c0.093,0.171,0.297,0.612,0.456,0.979c0.884,2.034,4.626,6.25,5.548,6.25c0.105,0,0.191,0.065,0.191,0.146
		c0,0.165,2.551,1.457,3.377,1.711c4.259,1.311,8.563,1.107,12.29-0.579c8.99-4.064,12.189-15.387,6.731-23.824
		c-0.866-1.338-3.437-3.961-4.224-4.31c-0.28-0.124-0.508-0.272-0.508-0.332c0-0.154-2.964-1.556-3.75-1.772
		c-2.372-0.654-2.751-0.705-5.178-0.69C382.188,39.691,380.905,39.786,380.333,39.932 M142.083,61.524
		c-2.788,0.348-6.437,1.394-8.598,2.464c-1.143,0.566-4.101,2.388-4.318,2.659c-0.046,0.058-0.609,0.532-1.25,1.056
		c-0.642,0.522-1.58,1.402-2.084,1.957c-1.711,1.877-2,1.565-2-2.152c0-3.348-0.227-3.951-1.783-4.738
		c-0.783-0.395-18.393-0.409-19.336-0.015c-0.82,0.343-1.474,1.113-1.697,1.997c-0.26,1.034-0.26,65.964,0,66.998
		c0.578,2.296,0.3,2.251,13.9,2.251c12.708,0,12.325,0.03,13.272-1.027c0.66-0.736,0.644-0.285,0.644-18.904
		c0-20.663,0.006-20.752,1.519-23.84c1.894-3.867,7.304-6.075,12.565-5.128c2.123,0.382,5.337,1.17,6.416,1.572
		c2.464,0.918,4.33,0.179,4.842-1.919c0.153-0.624,1.141-4.323,1.337-5.004c0.08-0.275,0.328-1.175,0.552-2
		c0.223-0.825,0.532-1.95,0.686-2.5c0.153-0.55,0.339-1.226,0.412-1.5c0.073-0.275,0.3-1.101,0.506-1.833
		c0.416-1.483,0.795-2.861,1.317-4.789c0.688-2.544-0.214-4.628-2.004-4.628c-0.197,0-0.63-0.07-0.962-0.155
		C152.88,61.539,145.466,61.102,142.083,61.524 M194.75,61.514c-6.702,0.371-13.745,2.333-18.5,5.154
		c-0.458,0.271-0.946,0.547-1.083,0.61c-0.733,0.345-3.644,2.35-4.084,2.814c-0.091,0.097-0.429,0.374-0.75,0.615
		c-1.065,0.802-2.927,2.688-4.322,4.375c-1.844,2.231-1.844,2.231-1.844,2.404c0,0.083-0.061,0.177-0.135,0.206
		c-0.594,0.245-3.497,5.972-4.295,8.474c-0.132,0.412-0.315,0.981-0.406,1.266c-0.514,1.588-0.89,3.38-1.342,6.4
		c-0.347,2.316-0.389,6.225-0.093,8.667c0.502,4.145,0.918,5.912,2.357,10c0.705,2.005,3.862,7.667,4.274,7.667
		c0.077,0,0.14,0.111,0.14,0.25c0,0.137,0.057,0.25,0.128,0.25c0.07,0,0.239,0.18,0.375,0.399c0.724,1.177,4.115,4.663,5.729,5.893
		c0.56,0.426,1.055,0.819,1.101,0.875c0.324,0.386,3.14,2.116,5.333,3.275c7.832,4.144,19.724,5.789,28.584,3.957
		c0.642-0.133,1.541-0.316,2-0.409c4.408-0.896,12.884-4.5,14.083-5.988c0.046-0.058,0.365-0.274,0.708-0.483
		c0.344-0.209,0.625-0.449,0.625-0.533s0.106-0.152,0.235-0.152c0.131,0,0.263-0.057,0.293-0.125
		c0.031-0.069,0.431-0.422,0.889-0.784c1.167-0.923,3.936-3.743,4.788-4.876c0.392-0.521,0.881-1.131,1.087-1.356
		c0.206-0.224,0.375-0.466,0.375-0.538c0-0.071,0.098-0.229,0.215-0.351c0.192-0.198,0.689-0.958,1.23-1.884
		c0.255-0.435,2.054-4.067,2.23-4.503c0.075-0.184,0.275-0.671,0.446-1.083c0.981-2.377,1.864-6.352,2.204-9.917
		c0.474-4.981-0.17-10.713-1.74-15.5c-0.598-1.82-0.746-2.181-1.885-4.583c-0.707-1.493-2.438-4.406-2.869-4.833
		c-0.046-0.046-0.417-0.534-0.824-1.084c-1.384-1.869-2.852-3.37-5.758-5.89c-0.74-0.641-2.719-2.026-2.895-2.026
		c-0.104,0-0.188-0.063-0.188-0.137c0-0.076-0.319-0.306-0.709-0.511s-1.083-0.594-1.541-0.864c-0.731-0.433-1.722-0.925-3.5-1.737
		c-0.881-0.402-3.455-1.344-4.334-1.584c-1.981-0.544-3.156-0.826-4.166-1.001c-0.642-0.112-1.729-0.303-2.417-0.426
		s-2.225-0.268-3.417-0.319c-1.191-0.053-2.541-0.123-3-0.154C197.625,61.402,196.125,61.438,194.75,61.514 M285.833,61.514
		c-7.015,0.504-12.876,3.417-17.324,8.611c-1.653,1.93-2.009,1.448-2.009-2.722c0-3.479-0.116-3.833-1.495-4.528l-0.741-0.375
		h-9.139c-9.932,0-9.813-0.011-10.646,0.94c-0.871,0.992-0.817-1.424-0.771,35.038l0.043,33.657l0.516,0.64
		c0.969,1.205,0.196,1.137,13.233,1.187c12.528,0.048,12.302,0.061,13.224-0.78c1.004-0.915,0.944,0.393,0.944-20.688
		c0-21.355-0.037-20.556,1.048-22.827c2.848-5.96,11.653-6.21,14.71-0.419c1.207,2.286,1.121,0.688,1.228,22.835
		c0.072,14.755,0.148,20.088,0.291,20.334c0.939,1.613,0.681,1.583,13.828,1.583c13.31,0,12.699,0.074,13.818-1.668
		c0.1-0.153,0.193-7.94,0.246-20.332c0.082-18.925,0.104-20.131,0.392-20.917c2.937-8.021,13.09-8.225,15.88-0.319l0.465,1.319
		l0.05,19.75c0.054,21.115,0.02,20.317,0.904,21.213c0.954,0.965,0.798,0.954,13.37,0.95c12.779-0.004,12.435,0.024,13.22-1.103
		c0.728-1.044,0.717-0.733,0.717-21.432c0-23.209-0.039-24.054-1.365-29.045c-1.992-7.505-7.008-13.921-13.551-17.339
		c-0.642-0.335-1.242-0.667-1.334-0.737c-0.387-0.298-4.313-1.651-5.75-1.981c-6.857-1.577-13.886-1.123-20.666,1.338
		c-1.084,0.393-4.046,1.969-5.423,2.886c-1.301,0.865-1.662,1.143-3.062,2.351c-1.239,1.071-1.469,1.05-2.818-0.262
		c-1.41-1.37-3.997-3.188-5.792-4.068c-0.91-0.445-1.786-0.878-1.945-0.958c-1.75-0.884-6.287-1.905-9.127-2.056
		c-1.055-0.056-2.217-0.127-2.583-0.157C288.05,61.402,286.887,61.439,285.833,61.514 M43.167,62.122
		c-0.659,0.067-2.642,0.385-3.917,0.625c-0.642,0.121-1.729,0.308-2.417,0.416c-0.687,0.107-1.55,0.26-1.916,0.338
		c-0.367,0.079-1.417,0.261-2.334,0.405c-0.916,0.144-2.229,0.37-2.916,0.503c-1.384,0.266-3.756,0.69-5.167,0.926
		c-4.305,0.717-5.26,1.173-5.556,2.654c-0.192,0.961-0.129,63.354,0.065,64.053c0.095,0.343,0.245,0.625,0.332,0.625
		c0.088,0,0.161,0.093,0.164,0.208c0.007,0.268,0.592,0.683,1.312,0.93c0.806,0.278,23.052,0.253,23.772-0.026
		c1.899-0.733,1.815-0.255,1.911-10.938l0.083-9.258l0.402-0.666c1.387-2.305,4.771-3.174,6.182-1.591
		c0.045,0.052,0.394,0.295,0.774,0.541c2.641,1.711,6.705,6.94,8.134,10.466c1.342,3.313,2.195,6.137,2.847,9.427
		c0.128,0.646,0.828,1.465,1.578,1.848l0.75,0.384l12.271,0.004c14.273,0.006,13.413,0.099,14.553-1.58
		c0.683-1.006,0.647-1.363-0.647-6.498c-0.53-2.103-1.235-4.348-1.676-5.334c-0.123-0.275-0.51-1.212-0.86-2.083
		c-0.524-1.305-1.497-3.25-2.625-5.25c-0.556-0.985-2.001-3.16-2.141-3.223c-0.069-0.03-0.125-0.161-0.125-0.292
		c0-0.13-0.059-0.235-0.131-0.235c-0.072,0-0.262-0.223-0.422-0.494c-0.161-0.272-0.383-0.59-0.495-0.708
		c-0.111-0.118-0.652-0.771-1.202-1.452c-2.467-3.05-6.194-6.46-10.171-9.302c-2.32-1.659-2.479-2.409-0.839-3.961
		c0.097-0.091,0.512-0.616,0.921-1.166c0.41-0.55,0.918-1.194,1.128-1.432c0.211-0.236,1.289-1.587,2.396-3
		c1.107-1.412,2.137-2.72,2.289-2.902c0.152-0.185,0.537-0.671,0.855-1.084c0.318-0.412,0.62-0.787,0.671-0.832
		c0.051-0.046,0.353-0.421,0.671-0.833s0.705-0.9,0.859-1.083c0.154-0.185,0.929-1.159,1.722-2.168
		c0.793-1.008,1.567-1.983,1.72-2.167c0.153-0.185,0.541-0.671,0.861-1.083c0.321-0.412,0.709-0.899,0.861-1.082
		c0.153-0.185,1.229-1.534,2.391-3.001s2.27-2.853,2.462-3.079c2.139-2.526,2.165-4.64,0.069-5.655
		c-1.021-0.494-25.611-0.54-26.614-0.049c-0.424,0.207-1.292,1.231-3.21,3.784c-1.446,1.924-2.74,3.631-2.877,3.793
		c-0.137,0.161-0.248,0.361-0.248,0.443c0,0.083-0.063,0.177-0.141,0.206c-0.077,0.031-0.694,0.807-1.371,1.724
		c-0.677,0.916-1.325,1.778-1.439,1.916c-0.115,0.138-0.901,1.188-1.749,2.334c-0.847,1.146-1.599,2.107-1.67,2.139
		c-0.072,0.03-0.13,0.155-0.13,0.277c0,0.123-0.063,0.248-0.139,0.277c-0.077,0.031-0.695,0.802-1.375,1.713
		c-0.68,0.91-1.747,2.336-2.371,3.167c-0.624,0.829-1.195,1.612-1.268,1.738c-0.193,0.331-1.032,0.283-1.293-0.072
		c-0.178-0.245-0.221-2.402-0.221-11.19c0-10.68-0.007-10.9-0.347-11.624C45.638,62.497,44.579,61.975,43.167,62.122
		 M371.263,78.878c-0.407,0.231-0.801,0.648-1.042,1.106l-0.388,0.734v25.454c0,27.751-0.058,26.087,0.945,27.013
		C371.66,134,371.66,134,383.921,134c13.188,0,12.603,0.064,13.557-1.503l0.354-0.58l0.001-25.712V80.493l-0.403-0.64
		c-0.91-1.44-0.042-1.354-13.564-1.351l-11.948,0.002L371.263,78.878 M201.245,85.776c5.217,1.648,8.647,6.728,8.647,12.808
		c0,2.293-0.455,4.318-1.441,6.417c-5.126,10.905-20.567,8.578-22.868-3.446C183.615,91.27,191.975,82.848,201.245,85.776
		 M209.833,143.156c-2.133,0.316-3.819,2.438-3.715,4.677c0.276,5.99,9.132,5.84,9.132-0.154
		C215.25,144.487,213.078,142.674,209.833,143.156 M198.333,146.597c-0.596,0.127-1.485,0.305-1.976,0.396
		c-2.36,0.432-2.222-0.603-2.158,16.146l0.051,13.388l0.544,0.487l0.545,0.486h2.656c2.989,0,3.405-0.107,3.767-0.969
		c0.365-0.876,0.355-28.378-0.012-29.256C201.334,146.279,200.552,146.124,198.333,146.597 M150,155.175
		c-1.449,0.094-1.972,0.225-3.791,0.948c-9.161,3.642-9.161,17.241,0,20.925c2.098,0.844,2.699,0.952,5.268,0.948
		c2.295-0.005,4.4-0.317,4.796-0.713c0.064-0.064,0.236-0.116,0.383-0.116c0.489,0,2.774-1.462,3.693-2.363
		c5.523-5.411,4.157-14.892-2.636-18.3C155.274,155.281,153.386,154.956,150,155.175 M179.25,155.187
		c-1.928,0.171-3.191,0.749-4.62,2.112l-0.963,0.918l-0.006-0.9c-0.009-1.518-0.743-1.98-3.142-1.982
		c-3.379-0.002-3.184-0.675-3.185,11.016c-0.001,12.203-0.376,11.15,3.973,11.15h2.658l0.517-0.484l0.518-0.482v-5.693
		c0-7.966,0.462-9.184,3.479-9.17c2.943,0.014,3.352,1.103,3.36,8.933c0.007,7.387-0.273,6.897,3.959,6.897
		c4.057,0,3.869,0.374,3.869-7.674c0-4.827-0.052-6.253-0.269-7.364C188.411,157.404,184.65,154.707,179.25,155.187
		 M231.333,155.174c-1.569,0.114-3.39,0.948-4.519,2.069l-0.77,0.763l-0.094-0.697c-0.192-1.435-1.014-1.941-3.182-1.963
		c-3.494-0.034-3.27-0.79-3.27,11.021c0,12.229-0.38,11.126,3.833,11.126c4.099,0,3.834,0.493,3.834-7.159
		c0-5.586,0.017-5.894,0.351-6.672c0.896-2.082,3.645-2.665,5.316-1.129c0.389,0.355,0.6,0.707,0.936,1.55
		c0.072,0.184,0.172,3.097,0.223,6.475l0.091,6.142l0.5,0.399c0.623,0.497,5.347,0.618,6.235,0.159
		c0.859-0.445,0.879-0.637,0.815-8.282l-0.059-7.059l-0.484-1.167c-0.805-1.941-2.624-4.25-3.348-4.25
		c-0.134,0-0.243-0.066-0.243-0.147C237.5,155.724,233.714,155.001,231.333,155.174 M255.417,155.177
		c-2.963,0.207-5.604,1.536-7.709,3.878c-0.298,0.331-0.541,0.68-0.541,0.774c0,0.094-0.065,0.171-0.144,0.171
		c-0.08,0-0.371,0.469-0.648,1.042c-2.92,6.039-0.762,13.006,4.875,15.726c4.74,2.287,12.771,1.278,15.482-1.944
		c0.846-1.006,0.455-1.923-1.686-3.947c-0.666-0.63-1.9-0.566-2.38,0.124c-0.76,1.092-4.914,1.868-6.62,1.236
		c-1.689-0.626-3.374-2.381-3.379-3.521l-0.001-0.369l7.403-0.048l7.402-0.048l0.43-0.404c0.518-0.485,0.623-3.186,0.177-4.429
		c-0.134-0.367-0.242-0.756-0.243-0.864c-0.002-0.182-0.677-1.641-1.289-2.79C264.91,156.691,260.389,154.829,255.417,155.177
		 M208.126,155.547c-1.272,0.414-1.209-0.152-1.209,10.886c0,12.181-0.39,11.067,3.858,11.067c4.258,0,3.892,1.043,3.892-11.075
		c0-10.472,0.017-10.285-0.946-10.759C213.086,155.353,208.988,155.266,208.126,155.547 M258.032,160.696
		c1.174,0.353,2.301,1.569,2.711,2.93l0.112,0.375h-4.095c-4.626,0-4.396,0.083-3.679-1.331
		C253.988,160.882,255.988,160.084,258.032,160.696 M152.731,161.866c4.114,1.193,4.568,7.254,0.685,9.134
		c-4.821,2.334-8.896-4.556-4.818-8.146C149.776,161.818,151.305,161.452,152.731,161.866 M0,0 M0,0 M0,0 M0,0"/>
</g>
<g id="svgg_1_" display="none">
	<path id="path4_1_" display="inline" fill="#FFFFFF" d="M41,6.932c-7.172,0.845-13.617,5.597-16.905,12.465
		c-1.223,2.557-2.112,5.356-2.373,7.479c-0.111,0.898-0.073,0.886-1.448,0.518c-1.531-0.41-6.579-0.406-8.274,0.006
		c-2.255,0.549-5.5,1.898-5.5,2.288c0,0.081-0.086,0.146-0.191,0.146c-0.434,0-2.517,1.906-3.445,3.151
		c-0.245,0.329-0.489,0.637-0.542,0.683c-0.054,0.045-0.406,0.656-0.784,1.356c-2.995,5.561-1.537,13.623,2.956,16.352
		c0.324,0.195,0.627,0.408,0.673,0.469c0.123,0.166,1.701,0.943,2.529,1.246c2.033,0.744,5.145,1.076,7.408,0.791l1.187-0.149
		l0.095,1.01c0.275,2.911,2.742,4.43,5.996,3.689c0.569-0.129,1.56-0.321,2.201-0.427c1.345-0.221,3.356-0.598,4.917-0.92
		c0.596-0.123,1.646-0.312,2.333-0.419c0.688-0.108,1.813-0.308,2.5-0.442c0.688-0.136,1.625-0.312,2.084-0.391
		c0.458-0.08,1.433-0.258,2.166-0.396c0.734-0.138,1.934-0.362,2.667-0.501c2.93-0.55,3.355-0.652,3.917-0.942
		c1.747-0.906,2.394-2.54,2.303-5.825l-0.053-1.917l-1.084-0.104c-0.973-0.094-1.778-0.277-3.458-0.791
		c-2.632-0.803-5.418-2.945-5.034-3.873c0.241-0.581-0.249-0.528,4.576-0.491c8.012,0.061,12.976-2.036,16.504-6.973
		c4.815-6.736,3.28-18.213-3.087-23.068c-0.504-0.386-1.049-0.819-1.212-0.966c-0.884-0.793-4.066-2.151-6.455-2.756
		C47.269,7.001,42.193,6.791,41,6.932 M380.333,39.932c-0.504,0.13-1.216,0.323-1.583,0.43c-0.923,0.27-3.75,1.645-3.75,1.824
		c0,0.081-0.086,0.147-0.191,0.147c-0.976,0-4.356,3.876-5.525,6.334c-1.985,4.174-2.2,10.216-0.479,13.438
		c0.093,0.171,0.297,0.612,0.456,0.979c0.884,2.034,4.626,6.25,5.548,6.25c0.105,0,0.191,0.065,0.191,0.146
		c0,0.165,2.551,1.457,3.377,1.711c4.259,1.311,8.563,1.107,12.29-0.579c8.99-4.064,12.189-15.387,6.731-23.824
		c-0.866-1.338-3.437-3.961-4.224-4.31c-0.28-0.124-0.508-0.272-0.508-0.332c0-0.154-2.964-1.556-3.75-1.772
		c-2.372-0.654-2.751-0.705-5.178-0.69C382.188,39.691,380.905,39.786,380.333,39.932 M142.083,61.524
		c-2.788,0.348-6.437,1.394-8.598,2.464c-1.143,0.566-4.101,2.388-4.318,2.659c-0.046,0.058-0.609,0.532-1.25,1.056
		c-0.642,0.522-1.58,1.402-2.084,1.957c-1.711,1.877-2,1.565-2-2.152c0-3.348-0.227-3.951-1.783-4.738
		c-0.783-0.395-18.393-0.409-19.336-0.015c-0.82,0.343-1.474,1.113-1.697,1.997c-0.26,1.034-0.26,65.964,0,66.998
		c0.578,2.296,0.3,2.251,13.9,2.251c12.708,0,12.325,0.03,13.272-1.027c0.66-0.736,0.644-0.285,0.644-18.904
		c0-20.663,0.006-20.752,1.519-23.84c1.894-3.867,7.304-6.075,12.565-5.128c2.123,0.382,5.337,1.17,6.416,1.572
		c2.464,0.918,4.33,0.179,4.842-1.919c0.153-0.624,1.141-4.323,1.337-5.004c0.08-0.275,0.328-1.175,0.552-2
		c0.223-0.825,0.532-1.95,0.686-2.5c0.153-0.55,0.339-1.226,0.412-1.5c0.073-0.275,0.3-1.101,0.506-1.833
		c0.416-1.483,0.795-2.861,1.317-4.789c0.688-2.544-0.214-4.628-2.004-4.628c-0.197,0-0.63-0.07-0.962-0.155
		C152.88,61.539,145.466,61.102,142.083,61.524 M194.75,61.514c-6.702,0.371-13.745,2.333-18.5,5.154
		c-0.458,0.271-0.945,0.547-1.083,0.61c-0.733,0.345-3.644,2.35-4.084,2.814c-0.091,0.097-0.429,0.374-0.75,0.615
		c-1.065,0.802-2.927,2.688-4.322,4.375c-1.844,2.231-1.844,2.231-1.844,2.404c0,0.083-0.061,0.177-0.135,0.206
		c-0.594,0.245-3.497,5.972-4.295,8.474c-0.132,0.412-0.315,0.981-0.406,1.266c-0.514,1.588-0.89,3.38-1.342,6.4
		c-0.347,2.316-0.389,6.225-0.093,8.667c0.502,4.145,0.918,5.912,2.357,10c0.705,2.005,3.862,7.667,4.274,7.667
		c0.077,0,0.14,0.111,0.14,0.25c0,0.137,0.057,0.25,0.128,0.25c0.07,0,0.239,0.18,0.375,0.399c0.724,1.177,4.115,4.663,5.729,5.893
		c0.56,0.426,1.055,0.819,1.101,0.875c0.324,0.386,3.141,2.116,5.333,3.275c7.832,4.144,19.724,5.789,28.584,3.957
		c0.642-0.133,1.541-0.316,2-0.409c4.408-0.896,12.884-4.5,14.083-5.988c0.046-0.058,0.365-0.274,0.708-0.483
		c0.344-0.209,0.625-0.449,0.625-0.533s0.106-0.152,0.235-0.152c0.131,0,0.263-0.057,0.293-0.125
		c0.031-0.069,0.431-0.422,0.889-0.784c1.167-0.923,3.936-3.743,4.788-4.876c0.392-0.521,0.881-1.131,1.087-1.356
		c0.206-0.224,0.375-0.466,0.375-0.538c0-0.071,0.098-0.229,0.215-0.351c0.192-0.198,0.689-0.958,1.23-1.884
		c0.255-0.435,2.054-4.067,2.23-4.503c0.075-0.184,0.275-0.671,0.446-1.083c0.981-2.377,1.864-6.352,2.204-9.917
		c0.474-4.981-0.17-10.713-1.74-15.5c-0.598-1.82-0.746-2.181-1.885-4.583c-0.707-1.493-2.438-4.406-2.869-4.833
		c-0.046-0.046-0.417-0.534-0.824-1.084c-1.384-1.869-2.852-3.37-5.758-5.89c-0.74-0.641-2.719-2.026-2.895-2.026
		c-0.104,0-0.188-0.063-0.188-0.137c0-0.076-0.319-0.306-0.709-0.511s-1.083-0.594-1.541-0.864c-0.731-0.433-1.722-0.925-3.5-1.737
		c-0.881-0.402-3.455-1.344-4.334-1.584c-1.981-0.544-3.156-0.826-4.166-1.001c-0.642-0.112-1.729-0.303-2.417-0.426
		s-2.225-0.268-3.417-0.319c-1.19-0.053-2.541-0.123-3-0.154C197.625,61.402,196.125,61.438,194.75,61.514 M285.833,61.514
		c-7.015,0.504-12.876,3.417-17.324,8.611c-1.653,1.93-2.009,1.448-2.009-2.722c0-3.479-0.116-3.833-1.495-4.528l-0.741-0.375
		h-9.139c-9.932,0-9.813-0.011-10.646,0.94c-0.871,0.992-0.817-1.424-0.771,35.038l0.043,33.657l0.516,0.64
		c0.969,1.205,0.196,1.137,13.233,1.187c12.528,0.048,12.302,0.061,13.224-0.78c1.004-0.915,0.944,0.393,0.944-20.688
		c0-21.355-0.037-20.556,1.048-22.827c2.848-5.96,11.653-6.21,14.71-0.419c1.207,2.286,1.121,0.688,1.228,22.835
		c0.072,14.755,0.148,20.088,0.291,20.334c0.939,1.613,0.681,1.583,13.828,1.583c13.31,0,12.699,0.074,13.818-1.668
		c0.1-0.153,0.193-7.94,0.246-20.332c0.082-18.925,0.104-20.131,0.392-20.917c2.937-8.021,13.09-8.225,15.88-0.319l0.465,1.319
		l0.05,19.75c0.054,21.115,0.02,20.317,0.904,21.213c0.954,0.965,0.798,0.954,13.37,0.95c12.779-0.004,12.435,0.024,13.22-1.103
		c0.728-1.044,0.717-0.733,0.717-21.432c0-23.209-0.039-24.054-1.365-29.045c-1.992-7.505-7.008-13.921-13.551-17.339
		c-0.642-0.335-1.242-0.667-1.334-0.737c-0.387-0.298-4.313-1.651-5.75-1.981c-6.857-1.577-13.886-1.123-20.666,1.338
		c-1.084,0.393-4.046,1.969-5.423,2.886c-1.301,0.865-1.662,1.143-3.062,2.351c-1.239,1.071-1.469,1.05-2.818-0.262
		c-1.41-1.37-3.997-3.188-5.792-4.068c-0.91-0.445-1.786-0.878-1.945-0.958c-1.75-0.884-6.287-1.905-9.127-2.056
		c-1.055-0.056-2.217-0.127-2.583-0.157C288.05,61.402,286.887,61.439,285.833,61.514 M43.167,62.122
		c-0.659,0.067-2.642,0.385-3.917,0.625c-0.642,0.121-1.729,0.308-2.417,0.416c-0.687,0.107-1.55,0.26-1.916,0.338
		c-0.367,0.079-1.417,0.261-2.334,0.405c-0.916,0.144-2.229,0.37-2.916,0.503c-1.384,0.266-3.756,0.69-5.167,0.926
		c-4.305,0.717-5.26,1.173-5.556,2.654c-0.192,0.961-0.129,63.354,0.065,64.053c0.095,0.343,0.245,0.625,0.332,0.625
		c0.088,0,0.161,0.093,0.164,0.208c0.007,0.268,0.592,0.683,1.312,0.93c0.806,0.278,23.052,0.253,23.772-0.026
		c1.899-0.733,1.815-0.255,1.911-10.938l0.083-9.258l0.402-0.666c1.387-2.305,4.771-3.174,6.182-1.591
		c0.045,0.052,0.394,0.295,0.774,0.541c2.641,1.711,6.705,6.94,8.134,10.466c1.342,3.313,2.195,6.137,2.847,9.427
		c0.128,0.646,0.828,1.465,1.578,1.848l0.75,0.384l12.271,0.004c14.273,0.006,13.413,0.099,14.553-1.58
		c0.683-1.006,0.647-1.363-0.647-6.498c-0.53-2.103-1.235-4.348-1.676-5.334c-0.123-0.275-0.51-1.212-0.86-2.083
		c-0.524-1.305-1.497-3.25-2.625-5.25c-0.556-0.985-2.001-3.16-2.141-3.223c-0.069-0.03-0.125-0.161-0.125-0.292
		c0-0.13-0.059-0.235-0.131-0.235c-0.072,0-0.262-0.223-0.422-0.494c-0.161-0.272-0.383-0.59-0.495-0.708
		c-0.111-0.118-0.652-0.771-1.202-1.452c-2.467-3.05-6.194-6.46-10.171-9.302c-2.32-1.659-2.479-2.409-0.839-3.961
		c0.097-0.091,0.512-0.616,0.921-1.166c0.41-0.55,0.918-1.194,1.128-1.432c0.211-0.236,1.289-1.587,2.396-3
		c1.107-1.412,2.137-2.72,2.289-2.902c0.152-0.185,0.537-0.671,0.855-1.084c0.318-0.412,0.62-0.787,0.671-0.832
		c0.051-0.046,0.353-0.421,0.671-0.833s0.705-0.9,0.859-1.083c0.154-0.185,0.929-1.159,1.722-2.168
		c0.793-1.008,1.567-1.983,1.72-2.167c0.153-0.185,0.541-0.671,0.861-1.083c0.321-0.412,0.709-0.899,0.861-1.082
		c0.153-0.185,1.229-1.534,2.391-3.001s2.27-2.853,2.462-3.079c2.139-2.526,2.165-4.64,0.069-5.655
		c-1.021-0.494-25.611-0.54-26.614-0.049c-0.424,0.207-1.292,1.231-3.21,3.784c-1.446,1.924-2.74,3.631-2.877,3.793
		c-0.137,0.161-0.248,0.361-0.248,0.443c0,0.083-0.063,0.177-0.141,0.206c-0.077,0.031-0.694,0.807-1.371,1.724
		c-0.677,0.916-1.325,1.778-1.439,1.916c-0.115,0.138-0.901,1.188-1.749,2.334c-0.847,1.146-1.599,2.107-1.67,2.139
		c-0.072,0.03-0.13,0.155-0.13,0.277c0,0.123-0.063,0.248-0.139,0.277c-0.077,0.031-0.695,0.802-1.375,1.713
		c-0.68,0.91-1.747,2.336-2.371,3.167c-0.624,0.829-1.195,1.612-1.268,1.738c-0.193,0.331-1.032,0.283-1.293-0.072
		c-0.178-0.245-0.221-2.402-0.221-11.19c0-10.68-0.007-10.9-0.347-11.624C45.638,62.497,44.579,61.975,43.167,62.122
		 M371.263,78.878c-0.407,0.231-0.801,0.648-1.042,1.106l-0.388,0.734v25.454c0,27.751-0.058,26.087,0.945,27.013
		C371.66,134,371.66,134,383.921,134c13.188,0,12.603,0.064,13.557-1.503l0.354-0.58l0.001-25.712V80.493l-0.403-0.64
		c-0.91-1.44-0.042-1.354-13.564-1.351l-11.948,0.002L371.263,78.878 M201.245,85.776c5.217,1.648,8.647,6.728,8.647,12.808
		c0,2.293-0.455,4.318-1.441,6.417c-5.126,10.905-20.567,8.578-22.868-3.446C183.615,91.27,191.975,82.848,201.245,85.776
		 M209.833,143.156c-2.133,0.316-3.819,2.438-3.715,4.677c0.276,5.99,9.132,5.84,9.132-0.154
		C215.25,144.487,213.078,142.674,209.833,143.156 M198.333,146.597c-0.597,0.127-1.485,0.305-1.976,0.396
		c-2.36,0.432-2.223-0.603-2.158,16.146l0.051,13.388l0.544,0.487l0.545,0.486h2.656c2.989,0,3.405-0.107,3.767-0.969
		c0.365-0.876,0.355-28.378-0.012-29.256C201.334,146.279,200.552,146.124,198.333,146.597 M150,155.175
		c-1.449,0.094-1.972,0.225-3.791,0.948c-9.161,3.642-9.161,17.241,0,20.925c2.098,0.844,2.699,0.952,5.268,0.948
		c2.295-0.005,4.4-0.317,4.796-0.713c0.064-0.064,0.236-0.116,0.383-0.116c0.489,0,2.774-1.462,3.693-2.363
		c5.523-5.411,4.157-14.892-2.636-18.3C155.274,155.281,153.386,154.956,150,155.175 M179.25,155.187
		c-1.928,0.171-3.191,0.749-4.62,2.112l-0.963,0.918l-0.006-0.9c-0.009-1.518-0.743-1.98-3.142-1.982
		c-3.379-0.002-3.184-0.675-3.185,11.016c-0.001,12.203-0.376,11.15,3.973,11.15h2.658l0.518-0.484l0.518-0.482v-5.693
		c0-7.966,0.462-9.184,3.479-9.17c2.943,0.014,3.353,1.103,3.36,8.933c0.007,7.387-0.272,6.897,3.959,6.897
		c4.058,0,3.869,0.374,3.869-7.674c0-4.827-0.052-6.253-0.269-7.364C188.411,157.404,184.65,154.707,179.25,155.187
		 M231.333,155.174c-1.569,0.114-3.39,0.948-4.519,2.069l-0.77,0.763l-0.094-0.697c-0.192-1.435-1.014-1.941-3.182-1.963
		c-3.494-0.034-3.27-0.79-3.27,11.021c0,12.229-0.38,11.126,3.833,11.126c4.099,0,3.834,0.493,3.834-7.159
		c0-5.586,0.017-5.894,0.351-6.672c0.896-2.082,3.645-2.665,5.316-1.129c0.389,0.355,0.6,0.707,0.936,1.55
		c0.072,0.184,0.172,3.097,0.223,6.475l0.091,6.142l0.5,0.399c0.623,0.497,5.347,0.618,6.235,0.159
		c0.859-0.445,0.879-0.637,0.815-8.282l-0.059-7.059l-0.484-1.167c-0.805-1.941-2.624-4.25-3.348-4.25
		c-0.134,0-0.243-0.066-0.243-0.147C237.5,155.724,233.714,155.001,231.333,155.174 M255.417,155.177
		c-2.963,0.207-5.604,1.536-7.709,3.878c-0.298,0.331-0.541,0.68-0.541,0.774c0,0.094-0.065,0.171-0.144,0.171
		c-0.08,0-0.371,0.469-0.648,1.042c-2.92,6.039-0.762,13.006,4.875,15.726c4.74,2.287,12.771,1.278,15.482-1.944
		c0.846-1.006,0.455-1.923-1.686-3.947c-0.666-0.63-1.9-0.566-2.38,0.124c-0.76,1.092-4.914,1.868-6.62,1.236
		c-1.689-0.626-3.374-2.381-3.379-3.521l-0.001-0.369l7.403-0.048l7.402-0.048l0.43-0.404c0.518-0.485,0.623-3.186,0.177-4.429
		c-0.134-0.367-0.242-0.756-0.243-0.864c-0.002-0.182-0.677-1.641-1.289-2.79C264.91,156.691,260.389,154.829,255.417,155.177
		 M208.126,155.547c-1.272,0.414-1.209-0.152-1.209,10.886c0,12.181-0.39,11.067,3.858,11.067c4.258,0,3.892,1.043,3.892-11.075
		c0-10.472,0.017-10.285-0.946-10.759C213.086,155.353,208.988,155.266,208.126,155.547 M258.032,160.696
		c1.174,0.353,2.301,1.569,2.711,2.93l0.112,0.375h-4.095c-4.626,0-4.396,0.083-3.679-1.331
		C253.988,160.882,255.988,160.084,258.032,160.696 M152.731,161.866c4.114,1.193,4.568,7.254,0.685,9.134
		c-4.821,2.334-8.896-4.556-4.818-8.146C149.776,161.818,151.305,161.452,152.731,161.866 M0,0 M0,0 M0,0 M0,0"/>
</g>
</svg>
